<svg width="121" height="45" viewBox="0 0 121 45" fill="none" xmlns="http://www.w3.org/2000/svg">
<path d="M40.376 18.48V33.216H48.104V36H36.896V18.48H40.376ZM55.8523 23.28C57.7563 23.28 59.1243 23.656 59.9563 24.408C60.7883 25.144 61.2043 26.344 61.2043 28.008V32.64C61.2043 33.776 61.3243 34.896 61.5643 36H58.6123C58.5163 35.472 58.4443 34.856 58.3963 34.152H58.3483C57.9003 34.808 57.2923 35.32 56.5243 35.688C55.7723 36.056 54.9483 36.24 54.0523 36.24C52.8843 36.24 51.9483 35.92 51.2443 35.28C50.5563 34.624 50.2123 33.72 50.2123 32.568C50.2123 31.176 50.7963 30.064 51.9643 29.232C53.1483 28.384 54.8443 27.96 57.0523 27.96H58.0843V27.888C58.0843 27.04 57.9163 26.448 57.5803 26.112C57.2443 25.776 56.6443 25.608 55.7803 25.608C54.2123 25.608 52.7323 25.968 51.3403 26.688L50.8843 24.36C52.4043 23.64 54.0603 23.28 55.8523 23.28ZM53.1403 32.328C53.1403 32.84 53.2923 33.24 53.5963 33.528C53.9003 33.816 54.3163 33.96 54.8443 33.96C55.7563 33.96 56.5243 33.664 57.1483 33.072C57.7723 32.48 58.0843 31.736 58.0843 30.84V30.024H57.0523C55.7883 30.024 54.8203 30.24 54.1483 30.672C53.4763 31.088 53.1403 31.64 53.1403 32.328ZM64.7604 18H67.8804V25.128H67.9284C68.8724 23.896 70.0964 23.28 71.6004 23.28C73.1524 23.28 74.3684 23.832 75.2484 24.936C76.1444 26.04 76.5924 27.648 76.5924 29.76C76.5924 31.824 76.1284 33.424 75.2004 34.56C74.2884 35.68 73.0884 36.24 71.6004 36.24C70.0004 36.24 68.7284 35.576 67.7844 34.248H67.7364L67.6884 36H64.7604V18ZM73.5924 29.76C73.5924 28.416 73.3364 27.408 72.8244 26.736C72.3284 26.064 71.6244 25.728 70.7124 25.728C69.8644 25.728 69.1764 26.08 68.6484 26.784C68.1364 27.472 67.8804 28.424 67.8804 29.64V29.88C67.8804 31.128 68.1364 32.096 68.6484 32.784C69.1764 33.456 69.8644 33.792 70.7124 33.792C71.5604 33.792 72.2484 33.448 72.7764 32.76C73.3204 32.056 73.5924 31.056 73.5924 29.76ZM78.4685 18.48H90.7805V21.192L82.4045 33.24V33.288H90.7805V36H78.4685V33.288L86.8685 21.24V21.192H78.4685V18.48ZM98.6726 23.28C100.577 23.28 101.945 23.656 102.777 24.408C103.609 25.144 104.025 26.344 104.025 28.008V32.64C104.025 33.776 104.145 34.896 104.385 36H101.433C101.337 35.472 101.265 34.856 101.217 34.152H101.169C100.721 34.808 100.113 35.32 99.3446 35.688C98.5926 36.056 97.7686 36.24 96.8726 36.24C95.7046 36.24 94.7686 35.92 94.0646 35.28C93.3766 34.624 93.0326 33.72 93.0326 32.568C93.0326 31.176 93.6166 30.064 94.7846 29.232C95.9686 28.384 97.6646 27.96 99.8726 27.96H100.905V27.888C100.905 27.04 100.737 26.448 100.401 26.112C100.065 25.776 99.4646 25.608 98.6006 25.608C97.0326 25.608 95.5526 25.968 94.1606 26.688L93.7046 24.36C95.2246 23.64 96.8806 23.28 98.6726 23.28ZM95.9606 32.328C95.9606 32.84 96.1126 33.24 96.4166 33.528C96.7206 33.816 97.1366 33.96 97.6646 33.96C98.5766 33.96 99.3446 33.664 99.9686 33.072C100.593 32.48 100.905 31.736 100.905 30.84V30.024H99.8726C98.6086 30.024 97.6406 30.24 96.9686 30.672C96.2966 31.088 95.9606 31.64 95.9606 32.328ZM116.293 29.76C116.293 28.416 116.037 27.408 115.525 26.736C115.029 26.064 114.325 25.728 113.413 25.728C112.565 25.728 111.877 26.08 111.349 26.784C110.837 27.472 110.581 28.424 110.581 29.64V29.88C110.581 31.128 110.837 32.096 111.349 32.784C111.877 33.456 112.565 33.792 113.413 33.792C114.261 33.792 114.949 33.448 115.477 32.76C116.021 32.056 116.293 31.056 116.293 29.76ZM119.293 29.76C119.293 31.824 118.829 33.424 117.901 34.56C116.989 35.68 115.789 36.24 114.301 36.24C112.765 36.24 111.541 35.656 110.629 34.488H110.581V41.28H107.461V23.52H110.389L110.437 25.272H110.485C111.445 23.944 112.717 23.28 114.301 23.28C115.853 23.28 117.069 23.832 117.949 24.936C118.845 26.04 119.293 27.648 119.293 29.76Z" fill="black"/>
<path d="M26 31L15 20.5C20 15.5 21.5 14.5 26 10C34 18 29.5 27 26 31Z" fill="#FEAA5B"/>
<path d="M5 30.5L15.5 20C20.5 25 21.5 26.5 26 31C18 39.4 8.66667 34.1667 5 30.5Z" fill="#F8B14E"/>
<path d="M5.69101 10.3176L15.5 20L4.99999 30.5C-2.5 22.5 2.02434 13.9843 5.69101 10.3176Z" fill="#A8BAC5"/>
<path d="M15.5 20L5.5 10.5C10.0786 5.38372 11.9521 4.60465 16.0728 0C23.3985 8.69767 18.705 15.907 15.5 20Z" fill="#45525B"/>
</svg>
